HIERARCHY
ROOT Hips
{
	OFFSET -0.001795 -0.223333 0.028219
	CHANNELS 6 Xposition Yposition Zposition Zrotation Yrotation Xrotation 
	JOINT LeftUpLeg
	{
		OFFSET 0.069520 -0.091406 -0.006815
		CHANNELS 3 Zrotation Yrotation Xrotation
		JOINT LeftLeg
		{
			OFFSET 0.034277 -0.375199 -0.004496
			CHANNELS 3 Zrotation Yrotation Xrotation
			JOINT LeftFoot
			{
				OFFSET -0.013596 -0.397961 -0.043693
				CHANNELS 3 Zrotation Yrotation Xrotation
				JOINT LeftToe
				{
					OFFSET 0.026358 -0.055791 0.119288
					CHANNELS 3 Zrotation Yrotation Xrotation
					End Site
					{
						OFFSET 0.000000 0.000000 0.000000
					}
				}
			}
		}
	}
	JOINT RightUpLeg
	{
		OFFSET -0.067670 -0.090522 -0.004320
		CHANNELS 3 Zrotation Yrotation Xrotation
		JOINT RightLeg
		{
			OFFSET -0.038290 -0.382569 -0.008850
			CHANNELS 3 Zrotation Yrotation Xrotation
			JOINT RightFoot
			{
				OFFSET 0.015774 -0.398415 -0.042312
				CHANNELS 3 Zrotation Yrotation Xrotation
				JOINT RightToe
				{
					OFFSET -0.025372 -0.048144 0.123348
					CHANNELS 3 Zrotation Yrotation Xrotation
					End Site
					{
						OFFSET 0.000000 0.000000 0.000000
					}
				}
			}
		}
	}
	JOINT Spine
	{
		OFFSET -0.002533 0.108963 -0.026696
		CHANNELS 3 Zrotation Yrotation Xrotation
		JOINT Spine1
		{
			OFFSET 0.005487 0.135180 0.001092
			CHANNELS 3 Zrotation Yrotation Xrotation
			JOINT Spine2
			{
				OFFSET 0.001457 0.052922 0.025425
				CHANNELS 3 Zrotation Yrotation Xrotation
				JOINT Neck
				{
					OFFSET -0.002778 0.213870 -0.042857
					CHANNELS 3 Zrotation Yrotation Xrotation
					JOINT Head
					{
						OFFSET 0.005152 0.064970 0.051349
						CHANNELS 3 Zrotation Yrotation Xrotation
						End Site
						{
							OFFSET 0.000000 0.000000 0.000000
						}
					}
				}
				JOINT LeftShoulder
				{
					OFFSET 0.078845 0.121749 -0.034090
					CHANNELS 3 Zrotation Yrotation Xrotation
					JOINT LeftArm
					{
						OFFSET 0.090977 0.030469 -0.008868
						CHANNELS 3 Zrotation Yrotation Xrotation
						JOINT LeftForeArm
						{
							OFFSET 0.259612 -0.012772 -0.027456
							CHANNELS 3 Zrotation Yrotation Xrotation
							JOINT LeftHand
							{
								OFFSET 0.249234 0.008986 -0.001171
								CHANNELS 3 Zrotation Yrotation Xrotation
								End Site
								{
									OFFSET 0.000000 0.000000 0.000000
								}
							}
						}
					}
				}
				JOINT RightShoulder
				{
					OFFSET -0.081759 0.118833 -0.038615
					CHANNELS 3 Zrotation Yrotation Xrotation
					JOINT RightArm
					{
						OFFSET -0.096012 0.032551 -0.009143
						CHANNELS 3 Zrotation Yrotation Xrotation
						JOINT RightForeArm
						{
							OFFSET -0.253742 -0.013329 -0.021401
							CHANNELS 3 Zrotation Yrotation Xrotation
							JOINT RightHand
							{
								OFFSET -0.255298 0.007772 -0.005559
								CHANNELS 3 Zrotation Yrotation Xrotation
								End Site
								{
									OFFSET 0.000000 0.000000 0.000000
								}
							}
						}
					}
				}
			}
		}
	}
}
MOTION
Frames: 12
Frame Time: 0.050000
0.000000 0.967751 0.000000 -1.558781 -0.764961 7.057775 1.481649 -0.337751 -3.801770 -3.420637 0.380205 -2.101110 5.181120 12.958073 12.542829 0.000000 0.000000 0.000000 -1.283438 0.630912 -6.493746 1.966311 -0.134261 2.861489 -4.844803 -13.810507 9.505260 0.000000 0.000000 0.000000 4.530882 -0.345424 2.516945 -5.116066 1.797087 -23.527838 -2.441410 4.436076 28.144427 8.600156 -2.456918 -28.079042 0.000000 0.000000 0.000000 -16.819893 -6.875341 1.850352 -52.823071 -6.814450 -5.609283 -0.035891 -24.296354 1.083367 0.000000 0.000000 0.000000 25.306879 -5.214371 -3.559224 57.605459 4.859544 -5.992071 1.919462 26.859302 2.031054 0.000000 0.000000 0.000000 
0.002892 0.966837 0.003570 -1.470324 -0.719769 7.695511 1.304564 -0.372965 -4.207178 -4.110432 0.441903 -2.067994 6.028106 14.239722 12.140572 0.000000 0.000000 0.000000 -1.629655 0.644651 -6.695438 2.053584 -0.152720 2.518994 -5.346319 -14.723118 9.094025 0.000000 0.000000 0.000000 4.329091 -0.279404 1.716651 -5.175669 1.798859 -24.028098 -2.499846 4.897963 28.580303 8.039732 -2.027061 -28.395062 0.000000 0.000000 0.000000 -16.882693 -6.031427 1.316018 -53.336008 -5.983717 -6.059593 0.398097 -24.729861 1.008655 0.000000 0.000000 0.000000 25.874964 -6.175606 -4.067433 58.702577 3.160931 -6.942510 2.812559 29.058865 2.538731 0.000000 0.000000 0.000000 
0.006241 0.965353 0.007267 -1.232631 0.070240 7.793213 1.238910 -0.409736 -4.644730 -4.579237 0.482348 -1.044699 6.081542 14.353337 11.799344 0.000000 0.000000 0.000000 -1.924720 0.575543 -5.948303 2.054358 -0.175308 1.689621 -5.845699 -15.653098 9.387117 0.000000 0.000000 0.000000 4.593907 -0.267888 1.383491 -5.953951 1.998903 -23.763536 -2.356039 4.410398 28.915739 8.023671 -2.158806 -27.518232 0.000000 0.000000 0.000000 -16.657151 -6.652472 1.651240 -53.405589 -5.643914 -6.240644 -0.718506 -23.602724 1.175683 0.000000 0.000000 0.000000 26.304958 -5.347495 -3.536037 58.655978 2.951602 -7.107551 3.230043 28.140334 2.524242 0.000000 0.000000 0.000000 
0.010180 0.965737 0.011096 -1.214095 0.057038 8.185969 0.585906 -0.457855 -5.120032 -4.323471 0.460170 -0.304919 6.190058 14.562958 12.110643 0.000000 0.000000 0.000000 -2.451709 0.606090 -6.387850 2.585974 -0.224441 2.487894 -6.233972 -16.405860 9.423596 0.000000 0.000000 0.000000 4.639215 -0.235606 0.903372 -6.335849 2.070127 -24.263983 -1.907416 5.422846 29.643545 8.567213 -2.322829 -27.510555 0.000000 0.000000 0.000000 -16.833602 -6.562723 1.371763 -53.278289 -4.206487 -6.870002 -1.032610 -24.457172 1.248528 0.000000 0.000000 0.000000 27.724741 -6.104087 -3.775510 57.747537 2.721054 -7.329070 3.812582 27.977526 2.716554 0.000000 0.000000 0.000000 
0.014972 0.965692 0.014891 -1.373913 0.674495 8.278062 0.566380 -0.477637 -5.354259 -4.575016 0.483286 0.356618 5.838695 14.005781 11.641818 0.000000 0.000000 0.000000 -2.643747 0.597283 -6.331417 2.439208 -0.206439 2.720403 -6.352731 -16.603938 9.642574 0.000000 0.000000 0.000000 4.362434 -0.230862 0.964664 -5.921126 1.983128 -24.151500 -1.600963 5.777303 29.642499 9.001805 -2.477026 -27.361576 0.000000 0.000000 0.000000 -17.489143 -6.349134 1.014002 -53.075730 -3.999332 -6.889672 -1.673756 -24.088514 1.326209 0.000000 0.000000 0.000000 28.351736 -5.959513 -3.424982 57.038758 2.342117 -7.541280 4.258656 27.192669 2.745021 0.000000 0.000000 0.000000 
0.020654 0.966142 0.018429 -1.557469 0.604320 8.066252 0.326750 -0.481718 -5.365760 -4.105282 0.435107 1.212415 5.466360 13.400696 11.554554 0.000000 0.000000 0.000000 -2.869615 0.639726 -6.956061 3.078560 -0.264802 4.762349 -6.176393 -16.193514 8.576350 0.000000 0.000000 0.000000 4.464409 -0.260807 1.320369 -6.089365 2.020908 -24.174616 -1.209348 6.098904 29.727031 9.083133 -2.464560 -27.422198 0.000000 0.000000 0.000000 -17.436492 -6.335521 0.936540 -53.912992 -3.641881 -7.150400 -2.626957 -23.762242 1.497368 0.000000 0.000000 0.000000 28.857111 -5.463790 -3.003329 56.874225 2.456309 -7.528086 4.068906 26.232775 2.579333 0.000000 0.000000 0.000000 
0.026736 0.966004 0.021986 -1.719612 0.768703 8.047459 0.495667 -0.439301 -4.909394 -4.220459 0.446016 0.938971 5.230800 13.007959 11.353024 0.000000 0.000000 0.000000 -3.308369 0.783272 -9.140227 4.038768 -0.399387 9.236681 -6.597701 -16.996424 8.164545 0.000000 0.000000 0.000000 4.593755 -0.314946 1.906957 -5.820461 1.961432 -24.142212 -1.311368 6.021188 29.604518 9.272503 -2.525644 -27.689566 0.000000 0.000000 0.000000 -17.660737 -6.242305 0.857539 -54.535568 -2.857927 -7.560778 -3.542138 -23.675703 1.682062 0.000000 0.000000 0.000000 28.735630 -4.889491 -2.605925 56.501064 2.443008 -7.480949 4.796374 25.720539 2.639916 0.000000 0.000000 0.000000 
0.032740 0.965621 0.026028 -1.836275 1.270562 7.455714 0.007455 -0.331316 -3.673678 -3.937878 0.409529 0.937604 4.677684 12.073890 10.829926 0.000000 0.000000 0.000000 -4.029437 0.920008 -11.957384 5.563365 -0.797389 15.769683 -6.927866 -17.590058 7.273670 0.000000 0.000000 0.000000 4.658781 -0.385150 2.820372 -5.595711 1.938074 -23.519136 -1.532736 5.442685 29.630858 9.131943 -2.451259 -27.921855 0.000000 0.000000 0.000000 -18.140685 -6.353917 0.934458 -54.166018 -2.896650 -7.487111 -4.027019 -22.305745 1.678747 0.000000 0.000000 0.000000 28.555866 -4.414497 -2.357719 56.634862 3.454122 -7.016100 3.682161 25.045717 2.308293 0.000000 0.000000 0.000000 
0.037649 0.964907 0.031512 -2.062151 2.086711 6.299786 0.322527 -0.172793 -1.890224 -4.442351 0.456993 0.742213 4.637202 12.026158 10.621467 0.000000 0.000000 0.000000 -4.436674 1.020035 -14.642053 6.734615 -1.374381 23.226617 -7.124201 -17.945236 7.563369 0.000000 0.000000 0.000000 4.707241 -0.521224 4.594527 -5.174583 1.861084 -23.354185 -1.997179 4.784819 29.934441 9.713041 -2.785666 -28.119592 0.000000 0.000000 0.000000 -18.815531 -7.150704 1.341573 -53.001751 -2.800796 -7.370200 -4.545366 -21.559343 1.712285 0.000000 0.000000 0.000000 27.674175 -4.638769 -2.478010 56.895573 4.574824 -6.517204 4.478418 24.749052 2.439376 0.000000 0.000000 0.000000 
0.041245 0.965106 0.039414 -2.505735 2.615246 5.234426 0.577709 -0.032531 -0.201730 -4.293278 0.437102 1.079636 4.324010 11.344039 9.593277 0.000000 0.000000 0.000000 -4.463489 1.185198 -18.148009 7.544922 -1.984743 29.599800 -6.759927 -17.175040 7.536259 0.000000 0.000000 0.000000 5.004129 -0.628687 5.741049 -4.963322 1.830753 -23.131794 -2.410219 3.201554 30.645340 9.293919 -2.681526 -28.743179 0.000000 0.000000 0.000000 -19.779474 -7.283409 1.728278 -52.051955 -2.517821 -7.461418 -4.978370 -21.033406 1.791694 0.000000 0.000000 0.000000 26.818833 -4.031221 -2.418982 57.655873 4.964936 -6.362141 4.958682 24.993360 2.534714 0.000000 0.000000 0.000000 
0.043541 0.965217 0.049973 -3.086771 2.468483 4.889146 0.865460 0.079335 1.276121 -3.897108 0.395583 0.771661 4.100618 10.983325 9.716000 0.000000 0.000000 0.000000 -3.838005 1.525774 -22.467362 8.495683 -2.510437 32.675284 -7.319809 -18.291890 7.019765 0.000000 0.000000 0.000000 5.337380 -0.684031 6.108206 -4.277928 1.668047 -22.886785 -3.129185 2.404947 30.763628 8.825401 -2.582191 -28.612168 0.000000 0.000000 0.000000 -19.693743 -7.838424 2.301265 -52.220996 -2.121562 -7.693228 -5.240818 -19.973414 1.764036 0.000000 0.000000 0.000000 25.937261 -3.675667 -2.444643 58.099676 4.597620 -6.473231 6.056588 25.066379 2.728516 0.000000 0.000000 0.000000 
0.045128 0.964760 0.063166 -3.402908 2.461383 5.087316 0.999913 0.184043 2.679818 -3.920415 0.398141 0.552857 4.517992 11.452701 8.705568 0.000000 0.000000 0.000000 -3.026373 1.896319 -26.030796 8.466297 -2.412851 31.391218 -7.159466 -17.987630 7.782278 0.000000 0.000000 0.000000 5.793333 -0.766634 6.536251 -4.539935 1.717402 -23.317592 -3.284733 1.098891 31.033613 8.538286 -2.585259 -29.126729 0.000000 0.000000 0.000000 -20.175034 -7.648232 2.599283 -51.442465 -2.628962 -7.491652 -5.256163 -19.087758 1.714060 0.000000 0.000000 0.000000 25.316330 -3.791268 -2.941643 58.204270 4.303837 -6.556088 7.045450 24.645276 2.811904 0.000000 0.000000 0.000000 
